<svg xmlns="http://www.w3.org/2000/svg" xmlns:xlink="http://www.w3.org/1999/xlink" xmlns:svgjs="http://svgjs.dev/svgjs" width="147" height="132"><svg width="147" height="132" fill="none" xmlns="http://www.w3.org/2000/svg"><path opacity=".4" d="M73.803 132L0 81.21l62.265-21.338c19.557-6.707 49.486-2.304 68.154 10.023l1.333.88c10.816 7.139 16.168 15.831 15.094 24.45-.574 4.57-3.63 12.982-17.668 17.797L73.803 132zM24.687 84.602L75.47 119.56l50.134-17.179c6.074-2.08 9.778-5.19 10.204-8.562.5-4.009-3.296-9.105-10.149-13.639l-1.333-.88c-15.853-10.473-42.096-14.426-58.505-8.805L24.687 84.602z" fill="#FF824D"/><path opacity=".8" d="M73.803 103.637L0 52.83l62.265-21.34c19.557-6.707 49.486-2.304 68.154 10.023l1.352.88c10.816 7.138 16.168 15.831 15.094 24.449-.574 4.571-3.63 12.983-17.668 17.798l-55.376 18.978-.018.018zM24.706 56.239l50.782 34.959 50.134-17.18c6.075-2.08 9.779-5.19 10.205-8.561.5-4.01-3.297-9.105-10.149-13.64l-1.352-.88c-15.854-10.472-42.096-14.406-58.505-8.805L24.687 56.24h.019z" fill="#FF824D"/><path d="M73.803 75.273L0 24.465 62.265 3.127C81.822-3.58 111.75.84 130.419 13.15l1.352.88c10.816 7.138 16.168 15.83 15.094 24.449-.574 4.57-3.63 12.983-17.668 17.797L73.821 75.254l-.018.02zM24.706 27.875l50.782 34.959 50.134-17.18c6.075-2.08 9.779-5.19 10.205-8.562.5-4.009-3.297-9.105-10.149-13.638l-1.352-.88C108.472 12.1 82.23 8.147 65.821 13.767L24.687 27.875h.019z" fill="#FF824D"/></svg><style>@media (prefers-color-scheme:light){:root{filter:none}}@media (prefers-color-scheme:dark){:root{filter:none}}</style></svg>